<?xml version="1.0" standalone="no"?>
<!DOCTYPE svg PUBLIC "-//W3C//DTD SVG 20010904//EN"
 "http://www.w3.org/TR/2001/REC-SVG-20010904/DTD/svg10.dtd">
<svg version="1.0" xmlns="http://www.w3.org/2000/svg"
 width="299.000000pt" height="299.000000pt" viewBox="0 0 299.000000 299.000000"
 preserveAspectRatio="xMidYMid meet">
<metadata>
Created by potrace 1.14, written by Peter Selinger 2001-2017
</metadata>
<g transform="translate(0.000000,299.000000) scale(0.100000,-0.100000)"
fill="#000000" stroke="none">
<path d="M1585 2419 c-686 -56 -1218 -353 -1480 -824 -41 -74 -92 -241 -100
-326 l-7 -74 83 80 c46 44 86 82 89 85 45 42 158 128 287 218 191 132 495 275
813 382 393 132 931 220 1344 220 75 0 136 4 136 9 0 17 -221 105 -375 150
-227 66 -558 99 -790 80z"/>
<path d="M2433 2056 c-23 -20 -28 -32 -28 -71 0 -39 5 -51 28 -71 76 -65 188
8 157 102 -6 19 -21 41 -33 49 -33 23 -91 19 -124 -9z"/>
<path d="M2005 1937 c-17 -4 -43 -12 -60 -17 -82 -23 -182 -52 -295 -85 -69
-20 -153 -45 -187 -54 -34 -9 -65 -19 -67 -22 -3 -2 66 -13 152 -23 546 -63
1032 -229 1380 -472 34 -24 62 -39 62 -33 0 20 -71 152 -120 223 -56 82 -208
233 -283 284 -124 83 -244 138 -377 173 -113 29 -171 37 -205 26z"/>
<path d="M1917 1421 c105 -84 267 -269 374 -428 67 -99 100 -157 172 -305 34
-70 65 -127 68 -128 12 0 29 115 29 201 0 106 -20 206 -60 302 -34 82 -112
192 -162 230 -18 14 -105 50 -193 80 -88 30 -180 62 -205 71 -70 25 -76 19
-23 -23z"/>
<path d="M2593 1275 c-40 -17 -67 -66 -58 -105 9 -39 58 -80 97 -80 92 0 133
125 56 173 -37 24 -61 27 -95 12z"/>
</g>
</svg>
